<svg xmlns="http://www.w3.org/2000/svg" viewBox="0 0 100 100" fill="none">
  <defs>
    <linearGradient id="forgeGrad" x1="0%" y1="0%" x2="100%" y2="100%">
      <stop offset="0%" stop-color="#06D6A0" />
      <stop offset="50%" stop-color="#0EA5E9" />
      <stop offset="100%" stop-color="#6366F1" />
    </linearGradient>
  </defs>
  <rect width="100" height="100" rx="24" fill="url(#forgeGrad)" />
  <!-- Stylized Flame & Shield Symbol -->
  <path d="M50 18 C38 32 30 45 30 60 C30 76 40 84 50 84 C60 84 70 76 70 60 C70 45 62 32 50 18 Z" fill="#0B132B" opacity="0.9" />
  <path d="M50 35 C43 45 40 54 40 64 C40 72 45 76 50 76 C55 76 60 72 60 64 C60 54 57 45 50 35 Z" fill="url(#forgeGrad)" />
  <circle cx="50" cy="58" r="4" fill="#FFFFFF" />
</svg>
